<?xml version="1.0" encoding="UTF-8" standalone="no"?>
<!-- Created with Inkscape (http://www.inkscape.org/) -->

<svg
   xmlns:dc="http://purl.org/dc/elements/1.1/"
   xmlns:cc="http://creativecommons.org/ns#"
   xmlns:rdf="http://www.w3.org/1999/02/22-rdf-syntax-ns#"
   xmlns:svg="http://www.w3.org/2000/svg"
   xmlns="http://www.w3.org/2000/svg"
   xmlns:sodipodi="http://sodipodi.sourceforge.net/DTD/sodipodi-0.dtd"
   xmlns:inkscape="http://www.inkscape.org/namespaces/inkscape"
   width="105.82919mm"
   height="56.281834mm"
   viewBox="0 0 105.82919 56.281834"
   version="1.1"
   id="svg58"
   inkscape:version="0.92.1 r15371"
   sodipodi:docname="StanfordHapkit.svg">
  <defs
     id="defs52" />
  <sodipodi:namedview
     id="base"
     pagecolor="#ffffff"
     bordercolor="#666666"
     borderopacity="1.0"
     inkscape:pageopacity="0.0"
     inkscape:pageshadow="2"
     inkscape:zoom="1.4"
     inkscape:cx="186.32554"
     inkscape:cy="149.40413"
     inkscape:document-units="mm"
     inkscape:current-layer="layer1"
     showgrid="false"
     inkscape:window-width="1600"
     inkscape:window-height="806"
     inkscape:window-x="-11"
     inkscape:window-y="-11"
     inkscape:window-maximized="1" />
  <metadata
     id="metadata55">
    <rdf:RDF>
      <cc:Work
         rdf:about="">
        <dc:format>image/svg+xml</dc:format>
        <dc:type
           rdf:resource="http://purl.org/dc/dcmitype/StillImage" />
        <dc:title></dc:title>
      </cc:Work>
    </rdf:RDF>
  </metadata>
  <g
     inkscape:label="Layer 1"
     inkscape:groupmode="layer"
     id="layer1"
     transform="translate(-53.512202,-114.00898)">
    <g
       aria-label="Stanford
Hapkit"
       style="font-style:normal;font-weight:normal;font-size:25.39999962px;line-height:1.25;font-family:sans-serif;letter-spacing:0px;word-spacing:0px;fill:#c83737;fill-opacity:1;stroke:none;stroke-width:0.26458332"
       id="text62">
      <path
         d="m 67.750093,128.16005 q 0,1.079 -0.508496,2.1332 -0.496094,1.0542 -1.401465,1.78594 -0.992188,0.79375 -2.319238,1.24023 -1.314649,0.44649 -3.175,0.44649 -1.996778,0 -3.59668,-0.37207 -1.5875,-0.37207 -3.237012,-1.10381 v -3.07578 h 0.173633 q 1.401465,1.16582 3.237012,1.79834 1.835547,0.63252 3.447851,0.63252 2.282032,0 3.547071,-0.85576 1.277441,-0.85577 1.277441,-2.28203 0,-1.22784 -0.607715,-1.81075 -0.595312,-0.58291 -1.823144,-0.90537 -0.930176,-0.24804 -2.021582,-0.40928 -1.079004,-0.16123 -2.294434,-0.40927 -2.455664,-0.5209 -3.646289,-1.77354 -1.178222,-1.26504 -1.178222,-3.28662 0,-2.31924 1.95957,-3.79512 1.95957,-1.48828 4.97334,-1.48828 1.947168,0 3.571875,0.37207 1.624707,0.37207 2.877343,0.91778 v 2.90214 h -0.173633 q -1.054199,-0.89296 -2.778125,-1.47587 -1.711523,-0.59532 -3.509863,-0.59532 -1.971972,0 -3.175,0.81856 -1.190625,0.81855 -1.190625,2.1084 0,1.15341 0.595313,1.81074 0.595312,0.65732 2.095996,1.00459 0.79375,0.17363 2.257226,0.42168 1.463477,0.24805 2.480469,0.50849 2.058789,0.54571 3.100586,1.64952 1.041797,1.1038 1.041797,3.08818 z"
         style="fill:#c83737;stroke-width:0.26458332"
         id="path70" />
      <path
         d="m 78.701362,133.30702 q -0.657324,0.17363 -1.438671,0.28526 -0.768946,0.11162 -1.376661,0.11162 -2.1208,0 -3.224609,-1.14102 -1.103808,-1.14101 -1.103808,-3.65869 v -7.36699 h -1.575098 v -1.95957 h 1.575098 v -3.98115 h 2.33164 v 3.98115 h 4.812109 v 1.95957 h -4.812109 v 6.31279 q 0,1.09141 0.04961,1.71152 0.04961,0.60772 0.347265,1.14102 0.272852,0.49609 0.744141,0.73174 0.483691,0.22324 1.463476,0.22324 0.570508,0 1.190625,-0.16123 0.620117,-0.17363 0.892969,-0.28525 h 0.124023 z"
         style="fill:#c83737;stroke-width:0.26458332"
         id="path72" />
      <path
         d="m 92.294331,133.43105 h -2.319238 v -1.47588 q -0.310059,0.21084 -0.84336,0.59531 -0.520898,0.37207 -1.016992,0.59531 -0.58291,0.28526 -1.339453,0.47129 -0.756543,0.19844 -1.773535,0.19844 -1.872754,0 -3.175,-1.24024 -1.302246,-1.24023 -1.302246,-3.16259 0,-1.5751 0.669726,-2.54248 0.682129,-0.97979 1.934766,-1.53789 1.265039,-0.55811 3.038574,-0.75655 1.773535,-0.19844 3.80752,-0.29765 v -0.35967 q 0,-0.79375 -0.285254,-1.31465 -0.272852,-0.5209 -0.79375,-0.81856 -0.496094,-0.28525 -1.190625,-0.38447 -0.694532,-0.0992 -1.451075,-0.0992 -0.917773,0 -2.046386,0.24805 -1.128613,0.23564 -2.331641,0.69453 h -0.124023 v -2.36885 q 0.682129,-0.18603 1.971972,-0.40927 1.289844,-0.22325 2.542481,-0.22325 1.463476,0 2.54248,0.24805 1.091406,0.23565 1.885156,0.81856 0.781348,0.5705 1.190625,1.47587 0.409278,0.90538 0.409278,2.24483 z m -2.319238,-3.41065 v -3.85713 q -1.066602,0.062 -2.517676,0.18604 -1.438672,0.12402 -2.282031,0.35967 -1.00459,0.28525 -1.624707,0.89296 -0.620118,0.59532 -0.620118,1.64952 0,1.19062 0.719336,1.79834 0.719336,0.59531 2.195215,0.59531 1.227832,0 2.244824,-0.47129 1.016992,-0.48369 1.885157,-1.15342 z"
         style="fill:#c83737;stroke-width:0.26458332"
         id="path74" />
      <path
         d="m 108.39257,133.43105 h -2.33164 v -7.88789 q 0,-0.95499 -0.11162,-1.78594 -0.11162,-0.84336 -0.40928,-1.31465 -0.31005,-0.5209 -0.89296,-0.76895 -0.58291,-0.26045 -1.51309,-0.26045 -0.95498,0 -1.99678,0.47129 -1.04179,0.47129 -1.996775,1.20303 v 10.34356 h -2.331641 v -13.85342 h 2.331641 v 1.53789 q 1.091405,-0.90537 2.257225,-1.41387 1.16582,-0.50849 2.39365,-0.50849 2.24483,0 3.42305,1.35185 1.17822,1.35186 1.17822,3.89434 z"
         style="fill:#c83737;stroke-width:0.26458332"
         id="path76" />
      <path
         d="m 120.33603,116.39023 h -0.12402 q -0.38448,-0.11163 -1.00459,-0.22325 -0.62012,-0.12402 -1.09141,-0.12402 -1.50068,0 -2.18281,0.66973 -0.66973,0.65732 -0.66973,2.39365 v 0.47129 h 4.2044 v 1.95957 h -4.12998 v 11.89385 h -2.33165 V 121.5372 h -1.57509 v -1.95957 h 1.57509 v -0.45889 q 0,-2.46807 1.22784,-3.78271 1.22783,-1.32705 3.54707,-1.32705 0.78134,0 1.40146,0.0744 0.63252,0.0744 1.15342,0.17363 z"
         style="fill:#c83737;stroke-width:0.26458332"
         id="path78" />
      <path
         d="m 133.61894,126.51054 q 0,3.38584 -1.73633,5.34541 -1.73633,1.95957 -4.65088,1.95957 -2.93936,0 -4.67568,-1.95957 -1.72393,-1.95957 -1.72393,-5.34541 0,-3.38584 1.72393,-5.34541 1.73632,-1.97197 4.67568,-1.97197 2.91455,0 4.65088,1.97197 1.73633,1.95957 1.73633,5.34541 z m -2.40606,0 q 0,-2.69131 -1.0542,-3.99356 -1.0542,-1.31465 -2.92695,-1.31465 -1.89756,0 -2.95176,1.31465 -1.0418,1.30225 -1.0418,3.99356 0,2.60449 1.0542,3.95635 1.0542,1.33945 2.93936,1.33945 1.86035,0 2.91455,-1.32705 1.0666,-1.33946 1.0666,-3.96875 z"
         style="fill:#c83737;stroke-width:0.26458332"
         id="path80" />
      <path
         d="m 145.88486,122.12011 h -0.12402 q -0.5209,-0.12403 -1.017,-0.17363 -0.48369,-0.062 -1.15342,-0.062 -1.079,0 -2.08359,0.4837 -1.00459,0.47128 -1.93476,1.22783 v 9.83506 h -2.33164 v -13.85342 h 2.33164 v 2.04638 q 1.38906,-1.11621 2.44326,-1.57509 1.0666,-0.47129 2.17041,-0.47129 0.60771,0 0.88056,0.0372 0.27286,0.0248 0.81856,0.11163 z"
         style="fill:#c83737;stroke-width:0.26458332"
         id="path82" />
      <path
         d="m 159.3414,133.43105 h -2.33164 v -1.45108 q -1.00459,0.86817 -2.096,1.35186 -1.09141,0.48369 -2.36885,0.48369 -2.48047,0 -3.94394,-1.90996 -1.45108,-1.90996 -1.45108,-5.2958 0,-1.76114 0.4961,-3.1378 0.50849,-1.37666 1.36425,-2.34404 0.84336,-0.94258 1.95957,-1.43867 1.12862,-0.49609 2.33165,-0.49609 1.0914,0 1.93476,0.23564 0.84336,0.22324 1.77354,0.70693 V 114.133 h 2.33164 z m -2.33164,-3.41065 v -7.9499 q -0.94258,-0.42168 -1.68672,-0.58291 -0.74414,-0.16123 -1.62471,-0.16123 -1.95957,0 -3.05098,1.36426 -1.0914,1.36425 -1.0914,3.86953 0,2.46806 0.84336,3.75791 0.84336,1.27744 2.70371,1.27744 0.99219,0 2.00918,-0.43408 1.01699,-0.44649 1.89756,-1.14102 z"
         style="fill:#c83737;stroke-width:0.26458332"
         id="path84" />
      <path
         d="m 68.457026,165.18105 h -2.455664 v -9.04131 h -9.214941 v 9.04131 h -2.455664 v -18.46709 h 2.455664 v 7.24296 h 9.214941 v -7.24296 h 2.455664 z"
         style="fill:#c83737;stroke-width:0.26458332"
         id="path86" />
      <path
         d="m 84.009566,165.18105 h -2.319239 v -1.47588 q -0.310058,0.21084 -0.843359,0.59531 -0.520898,0.37207 -1.016992,0.59531 -0.58291,0.28526 -1.339453,0.47129 -0.756543,0.19844 -1.773535,0.19844 -1.872754,0 -3.175,-1.24024 -1.302247,-1.24023 -1.302247,-3.16259 0,-1.5751 0.669727,-2.54248 0.682129,-0.97979 1.934766,-1.5379 1.265039,-0.5581 3.038574,-0.75654 1.773535,-0.19844 3.807519,-0.29765 v -0.35967 q 0,-0.79375 -0.285254,-1.31465 -0.272851,-0.5209 -0.79375,-0.81856 -0.496093,-0.28525 -1.190625,-0.38447 -0.694531,-0.0992 -1.451074,-0.0992 -0.917773,0 -2.046386,0.24805 -1.128614,0.23564 -2.331641,0.69453 h -0.124023 v -2.36885 q 0.682128,-0.18603 1.971972,-0.40927 1.289844,-0.22325 2.542481,-0.22325 1.463476,0 2.54248,0.24805 1.091406,0.23565 1.885156,0.81856 0.781348,0.5705 1.190625,1.47587 0.409278,0.90538 0.409278,2.24483 z m -2.319239,-3.41065 v -3.85713 q -1.066601,0.062 -2.517675,0.18604 -1.438672,0.12402 -2.282032,0.35966 -1.004589,0.28526 -1.624707,0.89297 -0.620117,0.59532 -0.620117,1.64952 0,1.19062 0.719336,1.79834 0.719336,0.59531 2.195215,0.59531 1.227832,0 2.244824,-0.47129 1.016992,-0.48369 1.885156,-1.15342 z"
         style="fill:#c83737;stroke-width:0.26458332"
         id="path88" />
      <path
         d="m 100.71552,158.0869 q 0,1.68672 -0.48369,3.08819 -0.483692,1.38906 -1.364258,2.35644 -0.818555,0.91778 -1.934766,1.42627 -1.103808,0.4961 -2.344043,0.4961 -1.079004,0 -1.95957,-0.23565 -0.868164,-0.23564 -1.773535,-0.73174 v 5.8043 h -2.331641 v -18.96318 h 2.331641 v 1.45107 q 0.930176,-0.78135 2.083594,-1.30224 1.16582,-0.53331 2.480468,-0.53331 2.505274,0 3.894336,1.89756 1.401464,1.88516 1.401464,5.24619 z m -2.406054,0.062 q 0,-2.50528 -0.855761,-3.74551 -0.855762,-1.24024 -2.629297,-1.24024 -1.00459,0 -2.021582,0.43409 -1.016992,0.43408 -1.947168,1.14101 v 7.85069 q 0.992187,0.44648 1.699121,0.60771 0.719336,0.16123 1.624707,0.16123 1.947168,0 3.038574,-1.31465 1.091406,-1.31465 1.091406,-3.89433 z"
         style="fill:#c83737;stroke-width:0.26458332"
         id="path90" />
      <path
         d="m 116.92539,165.18105 h -3.07578 l -5.55625,-6.06475 -1.51309,1.43867 v 4.62608 h -2.33164 V 145.883 h 2.33164 v 12.37754 l 6.73447,-6.93291 h 2.93936 l -6.43682,6.39961 z"
         style="fill:#c83737;stroke-width:0.26458332"
         id="path92" />
      <path
         d="m 121.88632,149.00839 h -2.62929 v -2.41846 h 2.62929 z m -0.14882,16.17266 h -2.33165 v -13.85342 h 2.33165 z"
         style="fill:#c83737;stroke-width:0.26458332"
         id="path94" />
      <path
         d="m 133.47011,165.05702 q -0.65733,0.17363 -1.43867,0.28526 -0.76895,0.11162 -1.37666,0.11162 -2.1208,0 -3.22461,-1.14102 -1.10381,-1.14101 -1.10381,-3.65869 v -7.36699 h -1.5751 v -1.95957 h 1.5751 v -3.98115 h 2.33164 v 3.98115 h 4.81211 v 1.95957 H 128.658 v 6.31279 q 0,1.09141 0.0496,1.71152 0.0496,0.60772 0.34726,1.14102 0.27286,0.49609 0.74414,0.73174 0.4837,0.22324 1.46348,0.22324 0.57051,0 1.19063,-0.16123 0.62011,-0.17363 0.89296,-0.28525 h 0.12403 z"
         style="fill:#c83737;stroke-width:0.26458332"
         id="path96" />
    </g>
  </g>
</svg>
