<?xml version="1.0" encoding="UTF-8" standalone="no"?>
<!-- Created with Inkscape (http://www.inkscape.org/) -->

<svg
   xmlns:dc="http://purl.org/dc/elements/1.1/"
   xmlns:cc="http://creativecommons.org/ns#"
   xmlns:rdf="http://www.w3.org/1999/02/22-rdf-syntax-ns#"
   xmlns:svg="http://www.w3.org/2000/svg"
   xmlns="http://www.w3.org/2000/svg"
   xmlns:sodipodi="http://sodipodi.sourceforge.net/DTD/sodipodi-0.dtd"
   xmlns:inkscape="http://www.inkscape.org/namespaces/inkscape"
   width="89.981247mm"
   height="169.0257mm"
   viewBox="0 0 89.981247 169.0257"
   version="1.1"
   id="svg8"
   inkscape:version="0.92.1 r15371"
   sodipodi:docname="hapticPaddle.svg">
  <defs
     id="defs2" />
  <sodipodi:namedview
     id="base"
     pagecolor="#ffffff"
     bordercolor="#666666"
     borderopacity="1.0"
     inkscape:pageopacity="0.0"
     inkscape:pageshadow="2"
     inkscape:zoom="0.7"
     inkscape:cx="133.59451"
     inkscape:cy="396.57136"
     inkscape:document-units="mm"
     inkscape:current-layer="layer1"
     showgrid="false"
     inkscape:window-width="1600"
     inkscape:window-height="806"
     inkscape:window-x="-11"
     inkscape:window-y="-11"
     inkscape:window-maximized="1" />
  <metadata
     id="metadata5">
    <rdf:RDF>
      <cc:Work
         rdf:about="">
        <dc:format>image/svg+xml</dc:format>
        <dc:type
           rdf:resource="http://purl.org/dc/dcmitype/StillImage" />
        <dc:title />
      </cc:Work>
    </rdf:RDF>
  </metadata>
  <g
     inkscape:label="Layer 1"
     inkscape:groupmode="layer"
     id="layer1"
     transform="translate(-50.661267,-60.876406)">
    <path
       style="fill:none;stroke:#000000;stroke-width:0.26458332px;stroke-linecap:butt;stroke-linejoin:miter;stroke-opacity:1"
       d="m 72.193451,71.348212 c 13.297922,-14.503395 28.731619,-13.40375 41.577379,1.133931 12.84576,14.537681 -11.3585,50.117637 -7.18155,74.461307 4.17695,24.34367 45.05005,44.46827 30.99405,66.52381 -14.056,22.05554 -69.110347,21.41555 -83.532736,0 C 39.628205,192.05171 77.552147,171.73665 80.886905,147.32143 84.221663,122.90621 58.895529,85.851607 72.193451,71.348212 Z"
       id="path14"
       inkscape:connector-curvature="0"
       sodipodi:nodetypes="zzszzsz" />
    <path
       style="fill:#d40000;fill-opacity:1;stroke:none;stroke-width:5.39932537;stroke-linecap:round;stroke-linejoin:round;stroke-miterlimit:4;stroke-dasharray:none;stroke-opacity:0.58823529"
       d="m 331.5964,865.58186 c -35.77571,-3.77124 -71.58031,-15.24071 -95.12548,-30.472 -41.47716,-26.83144 -53.12943,-63.07918 -33.54462,-104.35022 6.97785,-14.70443 15.30915,-26.92392 47.95444,-70.33458 30.38014,-40.39854 40.06909,-55.63522 48.10523,-75.64948 7.18335,-17.89036 9.427,-32.04232 8.45598,-53.3367 -1.27741,-28.0134 -6.24895,-50.36959 -25.14434,-113.0697 -13.6049,-45.14486 -18.10095,-62.58516 -20.87011,-80.95582 -5.07182,-33.64656 -0.68387,-52.90292 16.05388,-70.45178 17.18535,-18.01816 36.53604,-29.4498 56.95604,-33.64744 9.38439,-1.9291 13.42821,-2.06294 23.68126,-0.78374 22.93117,2.86096 40.82801,12.70778 62.78848,34.54617 15.24536,15.1606 18.44302,21.19397 21.42755,40.4297 3.18601,20.53434 -1.0038,43.76585 -20.17769,111.88055 -14.59246,51.83929 -19.22149,72.71606 -21.43841,96.68659 -2.76089,29.85197 1.76897,53.15047 15.10201,77.6746 10.50731,19.32663 17.95511,29.08958 64.17156,84.11944 29.18325,34.74847 44.11343,58.87916 47.99334,77.56863 11.4267,55.04213 -43.44274,100.42378 -133.24637,110.206 -15.83442,1.72481 -46.48643,1.6956 -63.14275,-0.0603 z"
       id="path16"
       inkscape:connector-curvature="0"
       transform="scale(0.26458333)" />
    <ellipse
       style="fill:#d40000;fill-opacity:1;stroke:none;stroke-width:1;stroke-linecap:round;stroke-linejoin:round;stroke-miterlimit:4;stroke-dasharray:none;stroke-opacity:0.58823529"
       id="path18"
       cx="95.627968"
       cy="163.76338"
       rx="3.7797618"
       ry="4.7247024" />
    <path
       style="fill:#000000;fill-opacity:1;stroke:none;stroke-width:1.42857146;stroke-linecap:round;stroke-linejoin:round;stroke-miterlimit:4;stroke-dasharray:none;stroke-opacity:0.58823529"
       d="m 93.272585,151.12277 c -3.424256,-1.03753 -5.106116,-5.45576 -3.163395,-8.31021 1.310854,-1.92605 2.603034,-2.70536 4.534159,-2.73455 1.960835,-0.0297 3.771863,0.87496 4.97023,2.48263 1.104371,1.48156 1.104371,4.69961 0,6.18117 -1.480312,1.98591 -4.233227,3.01959 -6.340994,2.38096 z"
       id="path105"
       inkscape:connector-curvature="0" />
  </g>
</svg>
